<svg xmlns="http://www.w3.org/2000/svg" xmlns:xlink="http://www.w3.org/1999/xlink" width="162" height="162" viewBox="0 0 162 162">
  <defs>
    <style>
      .cls-1 {
        fill: #f4f4f4;
      }

      .cls-2 {
        fill: url(#linear-gradient);
      }

      .cls-3 {
        filter: url(#Intersection_4);
      }
    </style>
    <filter id="Intersection_4" x="0" y="0" width="162" height="162" filterUnits="userSpaceOnUse">
      <feOffset dy="10" input="SourceAlpha"/>
      <feGaussianBlur stdDeviation="5" result="blur"/>
      <feFlood flood-opacity="0.161"/>
      <feComposite operator="in" in2="blur"/>
      <feComposite in="SourceGraphic"/>
    </filter>
    <linearGradient id="linear-gradient" x1="0.5" y1="0.162" x2="0.5" y2="0.852" gradientUnits="objectBoundingBox">
      <stop offset="0" stop-color="aqua"/>
      <stop offset="1" stop-color="#0af"/>
    </linearGradient>
  </defs>
  <g id="Logo" transform="translate(15 5)">
    <g class="cls-3" transform="matrix(1, 0, 0, 1, -15, -5)">
      <path id="Intersection_4-2" data-name="Intersection 4" class="cls-1" d="M83.249,120.561a9.616,9.616,0,0,0-4.6-3.151L7.1,95.965a95.079,95.079,0,0,1-7.1-26L77.327,43.927a9.788,9.788,0,0,0,4.578-3.371L113.223,0C124.844,14.767,132,34.92,132,57.137,132,90.489,115.874,119.19,92.724,132Z" transform="translate(15 5)"/>
    </g>
    <path id="Intersection_3" data-name="Intersection 3" class="cls-2" d="M60.784,88.426a7.015,7.015,0,0,0-3.361-2.311L5.181,70.386A69.986,69.986,0,0,1,0,51.314l56.461-19.1A7.151,7.151,0,0,0,59.8,29.746L82.669,0c8.485,10.831,13.709,25.612,13.709,41.907C96.379,66.37,84.6,87.421,67.7,96.816Z" transform="translate(23.087 22.911)"/>
  </g>
</svg>
